<svg width="40" height="40" viewBox="0 0 40 40" fill="none" xmlns="http://www.w3.org/2000/svg">
<path d="M16.4691 7.05309C18.0384 4.31563 21.9616 4.31564 23.5309 7.0531L35.4477 27.8407C37.017 30.5782 35.0554 34 31.9168 34H8.08321C4.94463 34 2.98303 30.5782 4.55232 27.8407L16.4691 7.05309Z" fill="#F4C12A"/>
<path fill-rule="evenodd" clip-rule="evenodd" d="M20 24.8889C19.1716 24.8889 18.5 25.5853 18.5 26.4444C18.5 27.3036 19.1716 28 20 28C20.8284 28 21.5 27.3036 21.5 26.4444C21.5 25.5853 20.8284 24.8889 20 24.8889ZM20 14C19.1716 14 18.5 14.6964 18.5 15.5556V21.7778C18.5 22.6369 19.1716 23.3333 20 23.3333C20.8284 23.3333 21.5 22.6369 21.5 21.7778V15.5556C21.5 14.6964 20.8284 14 20 14Z" fill="#2C2044"/>
</svg>
